<svg width="185" height="79" viewBox="0 0 185 79" fill="none" xmlns="http://www.w3.org/2000/svg">
<path d="M53.6569 53.0023C50.8969 52.9156 48.5891 55.0828 48.5025 57.8429C48.4158 60.6029 50.583 62.9107 53.3431 62.9974L53.6569 53.0023ZM53.5 57.9998C53.3431 62.9974 53.3444 62.9974 53.3458 62.9974C53.3464 62.9975 53.3479 62.9975 53.3492 62.9975C53.3517 62.9976 53.3546 62.9977 53.358 62.9978C53.3648 62.998 53.3734 62.9983 53.3838 62.9985C53.4046 62.9991 53.4325 62.9998 53.4675 63.0007C53.5375 63.0023 53.6357 63.0044 53.7613 63.0063C54.0126 63.0103 54.3737 63.0139 54.8381 63.0134C55.7669 63.0125 57.1098 62.9952 58.8157 62.9314C62.2261 62.8038 67.0944 62.4897 73.0086 61.746C84.8222 60.2604 100.894 57.0499 117.886 50.1307L114.114 40.8691C98.1322 47.3771 82.9538 50.4166 71.7609 51.8241C66.1719 52.527 61.5978 52.8203 58.4417 52.9384C56.8642 52.9974 55.6428 53.0126 54.8281 53.0134C54.4208 53.0138 54.1153 53.0107 53.9179 53.0076C53.8193 53.006 53.7477 53.0045 53.7039 53.0035C53.682 53.0029 53.6671 53.0026 53.6592 53.0023C53.6553 53.0022 53.6531 53.0022 53.6527 53.0022C53.6526 53.0021 53.6528 53.0022 53.6535 53.0022C53.6539 53.0022 53.6547 53.0022 53.6549 53.0022C53.6559 53.0022 53.6569 53.0023 53.5 57.9998ZM117.886 50.1307C134.804 43.2415 148.355 34.9092 157.686 28.2936C162.355 24.9832 165.979 22.0947 168.451 20.019C169.687 18.9809 170.637 18.1452 171.285 17.5608C171.61 17.2685 171.859 17.039 172.032 16.8782C172.119 16.7979 172.186 16.7347 172.234 16.6894C172.258 16.6668 172.277 16.6487 172.291 16.6351C172.298 16.6283 172.304 16.6227 172.309 16.6182C172.311 16.616 172.313 16.6141 172.315 16.6124C172.316 16.6116 172.317 16.6105 172.317 16.6101C172.318 16.6092 172.319 16.6083 168.858 12.9999C165.397 9.39151 165.398 9.39078 165.398 9.39012C165.398 9.39 165.399 9.38941 165.399 9.38916C165.4 9.38866 165.4 9.38846 165.4 9.38853C165.4 9.38869 165.398 9.39 165.396 9.39244C165.391 9.39733 165.381 9.40675 165.366 9.42063C165.337 9.44839 165.288 9.49394 165.221 9.55653C165.086 9.68173 164.876 9.87506 164.593 10.1306C164.025 10.6416 163.164 11.4009 162.021 12.3607C159.734 14.2808 156.326 16.9997 151.902 20.1359C143.048 26.4135 130.17 34.3312 114.114 40.8691L117.886 50.1307Z" fill="white"/>
<g filter="url(#filter0_d_131_1440)">
<path d="M53.5942 55.0013C51.9381 54.9493 50.5535 56.2496 50.5015 57.9057C50.4495 59.5617 51.7498 60.9463 53.4058 60.9983L53.5942 55.0013ZM171.857 13.0624C171.892 11.4059 170.577 10.0351 168.92 10.0006L141.926 9.43829C140.27 9.40378 138.899 10.7187 138.864 12.3752C138.83 14.0317 140.145 15.4025 141.801 15.437L165.796 15.9368L165.296 39.9316C165.262 41.5881 166.577 42.9589 168.233 42.9934C169.89 43.0279 171.261 41.713 171.295 40.0565L171.857 13.0624ZM53.5 57.9998C53.4058 60.9983 53.4067 60.9984 53.4076 60.9984C53.4081 60.9984 53.4091 60.9984 53.4101 60.9985C53.4119 60.9985 53.4142 60.9986 53.417 60.9987C53.4225 60.9988 53.4298 60.9991 53.4389 60.9993C53.4571 60.9998 53.4824 61.0005 53.5148 61.0012C53.5795 61.0028 53.6724 61.0047 53.7927 61.0066C54.0331 61.0104 54.3831 61.0139 54.8361 61.0134C55.7421 61.0125 57.0607 60.9957 58.7409 60.9328C62.1005 60.8071 66.9099 60.4972 72.7591 59.7616C84.4485 58.2916 100.341 55.1153 117.131 48.2784L114.868 42.7214C98.6845 49.3116 83.3275 52.3853 72.0104 53.8085C66.3564 54.5195 61.7234 54.817 58.5165 54.937C56.9133 54.997 55.6677 55.0126 54.8301 55.0134C54.4114 55.0139 54.0948 55.0106 53.8866 55.0073C53.7826 55.0057 53.7056 55.0041 53.6566 55.0029C53.6321 55.0023 53.6146 55.0019 53.6041 55.0016C53.5989 55.0014 53.5955 55.0013 53.5938 55.0013C53.593 55.0013 53.5926 55.0012 53.5926 55.0012C53.5927 55.0013 53.5931 55.0013 53.5931 55.0013C53.5936 55.0013 53.5942 55.0013 53.5 57.9998ZM117.131 48.2784C133.877 41.4594 147.293 33.21 156.529 26.6621C161.149 23.3865 164.73 20.5319 167.165 18.4873C168.383 17.4649 169.314 16.6445 169.947 16.0747C170.263 15.7898 170.505 15.5675 170.67 15.4139C170.753 15.3371 170.816 15.2774 170.86 15.2357C170.882 15.2148 170.9 15.1984 170.912 15.1866C170.918 15.1807 170.923 15.1759 170.927 15.1723C170.929 15.1705 170.93 15.169 170.932 15.1678C170.932 15.1671 170.933 15.1664 170.933 15.1661C170.934 15.1655 170.935 15.1649 168.858 12.9999C166.781 10.8349 166.782 10.8345 166.782 10.8341C166.782 10.8341 166.782 10.8338 166.782 10.8338C166.782 10.8337 166.782 10.834 166.782 10.8345C166.781 10.8355 166.778 10.8377 166.775 10.841C166.768 10.8476 166.756 10.8588 166.74 10.8744C166.707 10.9056 166.654 10.9547 166.583 11.0209C166.441 11.1532 166.223 11.3538 165.931 11.6166C165.348 12.1423 164.468 12.9169 163.307 13.8924C160.983 15.8435 157.532 18.5964 153.059 21.7674C144.109 28.1126 131.097 36.1133 114.868 42.7214L117.131 48.2784Z" fill="black"/>
</g>
<path d="M0.568182 53.392V51.3636H10.125V53.392H6.5625V63H4.13068V53.392H0.568182ZM10.7472 63V54.2727H13.0938V55.7955H13.1847C13.3438 55.2538 13.6108 54.8447 13.9858 54.5682C14.3608 54.2879 14.7926 54.1477 15.2812 54.1477C15.4025 54.1477 15.5331 54.1553 15.6733 54.1705C15.8134 54.1856 15.9366 54.2064 16.0426 54.233V56.3807C15.929 56.3466 15.7718 56.3163 15.571 56.2898C15.3703 56.2633 15.1866 56.25 15.0199 56.25C14.6638 56.25 14.3456 56.3277 14.0653 56.483C13.7888 56.6345 13.5691 56.8466 13.4062 57.1193C13.2472 57.392 13.1676 57.7064 13.1676 58.0625V63H10.7472ZM19.054 66.2727C18.7472 66.2727 18.4593 66.2481 18.1903 66.1989C17.9252 66.1534 17.7055 66.0947 17.5312 66.0227L18.0767 64.2159C18.3608 64.303 18.6165 64.3504 18.8438 64.358C19.0748 64.3655 19.2737 64.3125 19.4403 64.1989C19.6108 64.0852 19.7491 63.892 19.8551 63.6193L19.9972 63.25L16.8665 54.2727H19.4119L21.2188 60.6818H21.3097L23.1335 54.2727H25.696L22.304 63.9432C22.1411 64.4129 21.9195 64.822 21.6392 65.1705C21.3627 65.5227 21.0123 65.7936 20.5881 65.983C20.1638 66.1761 19.6525 66.2727 19.054 66.2727ZM30.6378 63V54.2727H33.0582V63H30.6378ZM31.8537 53.1477C31.4938 53.1477 31.1851 53.0284 30.9276 52.7898C30.6738 52.5473 30.5469 52.2576 30.5469 51.9205C30.5469 51.5871 30.6738 51.3011 30.9276 51.0625C31.1851 50.8201 31.4938 50.6989 31.8537 50.6989C32.2135 50.6989 32.5204 50.8201 32.7741 51.0625C33.0317 51.3011 33.1605 51.5871 33.1605 51.9205C33.1605 52.2576 33.0317 52.5473 32.7741 52.7898C32.5204 53.0284 32.2135 53.1477 31.8537 53.1477ZM39.6392 54.2727V56.0909H34.3835V54.2727H39.6392ZM35.5767 52.1818H37.9972V60.3182C37.9972 60.5417 38.0313 60.7159 38.0994 60.8409C38.1676 60.9621 38.2623 61.0473 38.3835 61.0966C38.5085 61.1458 38.6525 61.1705 38.8153 61.1705C38.929 61.1705 39.0426 61.161 39.1562 61.142C39.2699 61.1193 39.357 61.1023 39.4176 61.0909L39.7983 62.892C39.6771 62.9299 39.5066 62.9735 39.2869 63.0227C39.0672 63.0758 38.8002 63.108 38.4858 63.1193C37.9025 63.142 37.3911 63.0644 36.9517 62.8864C36.5161 62.7083 36.1771 62.4318 35.9347 62.0568C35.6922 61.6818 35.5729 61.2083 35.5767 60.6364V52.1818Z" fill="#1A191E"/>
<defs>
<filter id="filter0_d_131_1440" x="37.5" y="0.437744" width="147.358" height="77.5757" filterUnits="userSpaceOnUse" color-interpolation-filters="sRGB">
<feFlood flood-opacity="0" result="BackgroundImageFix"/>
<feColorMatrix in="SourceAlpha" type="matrix" values="0 0 0 0 0 0 0 0 0 0 0 0 0 0 0 0 0 0 127 0" result="hardAlpha"/>
<feOffset dy="4"/>
<feGaussianBlur stdDeviation="6.5"/>
<feComposite in2="hardAlpha" operator="out"/>
<feColorMatrix type="matrix" values="0 0 0 0 0 0 0 0 0 0 0 0 0 0 0 0 0 0 0.15 0"/>
<feBlend mode="normal" in2="BackgroundImageFix" result="effect1_dropShadow_131_1440"/>
<feBlend mode="normal" in="SourceGraphic" in2="effect1_dropShadow_131_1440" result="shape"/>
</filter>
</defs>
</svg>
