<svg width="50" height="50" viewBox="0 0 50 50" fill="none" xmlns="http://www.w3.org/2000/svg">
<path d="M42.3102 36.8916C46.2414 32.625 45.8456 27.1458 45.8331 27.0833V10.4166C45.8331 9.86411 45.6136 9.33421 45.2229 8.94351C44.8322 8.55281 44.3023 8.33331 43.7498 8.33331H31.2498C28.9519 8.33331 27.0831 10.2021 27.0831 12.5V27.0833C27.0831 27.6358 27.3026 28.1658 27.6933 28.5565C28.084 28.9472 28.6139 29.1666 29.1664 29.1666H35.5789C35.5349 30.1966 35.2272 31.198 34.6852 32.075C33.6269 33.7437 31.6331 34.8833 28.756 35.4583L27.0831 35.7916V41.6666H29.1664C34.9644 41.6666 39.3873 40.0604 42.3102 36.8916ZM19.3789 36.8916C23.3123 32.625 22.9144 27.1458 22.9019 27.0833V10.4166C22.9019 9.86411 22.6824 9.33421 22.2917 8.94351C21.901 8.55281 21.3711 8.33331 20.8185 8.33331H8.31852C6.02061 8.33331 4.15186 10.2021 4.15186 12.5V27.0833C4.15186 27.6358 4.37135 28.1658 4.76205 28.5565C5.15275 28.9472 5.68265 29.1666 6.23519 29.1666H12.6477C12.6037 30.1966 12.2959 31.198 11.7539 32.075C10.6956 33.7437 8.70186 34.8833 5.82477 35.4583L4.15186 35.7916V41.6666H6.23519C12.0331 41.6666 16.456 40.0604 19.3789 36.8916V36.8916Z" fill="#5BB5A2"/>
</svg>
